<svg width="17" height="16" viewBox="0 0 17 16" fill="none" xmlns="http://www.w3.org/2000/svg">
<path d="M0.012207 7.77178L3.66935 4.57178L10.9836 5.02892L11.4408 12.3432L8.24078 16.0003C8.24078 16.0003 8.24124 13.2579 5.49792 10.5146C2.75461 7.77132 0.012207 7.77178 0.012207 7.77178Z" fill="#A0041E"/>
<path d="M8.91781e-06 16.0007C8.91781e-06 16.0007 -0.0164482 12.3532 1.36458 10.9722C2.74561 9.59112 6.41235 9.68621 6.41235 9.68621C6.41235 9.68621 6.41189 13.2579 5.04047 14.6293C3.66904 16.0007 8.91781e-06 16.0007 8.91781e-06 16.0007Z" fill="#FFAC33"/>
<path d="M3.6689 14.172C4.6788 14.172 5.49747 13.3534 5.49747 12.3435C5.49747 11.3336 4.6788 10.5149 3.6689 10.5149C2.65901 10.5149 1.84033 11.3336 1.84033 12.3435C1.84033 13.3534 2.65901 14.172 3.6689 14.172Z" fill="#FFCC4D"/>
<path d="M16.0121 0.000488281C16.0121 0.000488281 11.4407 0.000488281 5.95497 4.57192C3.21212 6.85763 3.21212 10.9719 4.1264 11.8862C5.04069 12.8005 9.15497 12.8005 11.4407 10.0576C16.0121 4.57192 16.0121 0.000488281 16.0121 0.000488281Z" fill="#55ACEE"/>
<path d="M11.8974 2.28638C11.1554 2.28638 10.52 2.73026 10.2329 3.36523C10.4624 3.26146 10.7152 3.20066 10.9831 3.20066C11.9929 3.20066 12.8117 4.01941 12.8117 5.02923C12.8117 5.29712 12.7509 5.54992 12.6475 5.77895C13.2825 5.49232 13.7259 4.85689 13.7259 4.11495C13.7259 3.10512 12.9072 2.28638 11.8974 2.28638Z" fill="black"/>
<path d="M3.21289 12.8008C3.21289 12.8008 3.21289 10.9722 3.67003 10.5151C4.12718 10.0579 9.61335 5.48696 10.07 5.94365C10.5267 6.40033 5.95529 11.8865 5.49815 12.3436C5.041 12.8008 3.21289 12.8008 3.21289 12.8008Z" fill="#A0041E"/>
</svg>
